# xmcd
#
# Track frame offsets:
#	150
#	9712
#	22056
#	31281
#	44116
#	53641
#	64052
#	73014
#	81857
#	92207
#	102182
#	113611
#	124898
#	136849
#	147124
#	157553
#	171053
#	182078
#	190778
#	200554
#	212404
#	222379
#	233254
#	242179
#	252304
#	262654
#	275571
#	285921
#	298230
#	308130
#	318030
#	327217
#	337154
#
# Disc length: 4653 seconds
#
# Revision: 1
# Processed by: cddbd v1.5.2PL0 Copyright (c) Steve Scherf et al.
# Submitted via: audiograbber 1.83.01
#
DISCID=dc122b21
DTITLE=Wayne Walker - ELTRORO  ETCD1026
DYEAR=2010
DGENRE=Rockabilly
TTITLE0=All I Can Do Isd Cry
TTITLE1=It압 My Way
TTITLE2=A Teenage Love Affair
TTITLE3=Whatever You Desire
TTITLE4=Just A Walkinㅇround
TTITLE5=Bo-Bo Ska Diddle Daddle
TTITLE6=Come Away From His Arms
TTITLE7=I앐 Finally Free
TTITLE8=It압 Written In The Stars
TTITLE9=Aftzer The Boy Gets The Girl
TTITLE10=Just Before Dawn
TTITLE11=You았e Got Me
TTITLE12=What Kind Of
TTITLE13=Little Ole You
TTITLE14=Now Is The Time For Love
TTITLE15=You Got The Best Of Me
TTITLE16=Lips That Kiss So Sweetly  ( Jimmy Lee and Wayne Walker )
TTITLE17=Love Me (with Jimmy Lee)
TTITLE18=Can You Find It In Your Heart
TTITLE19=Outlaw  ( Red Sovien )
TTITLE20=WhatCha Doin To Me  ( Jimmy and Johnny )
TTITLE21=Sweet Love On My Mind (Johnny Burnette Trio)
TTITLE22=The New Raunchy (Shady Wall)
TTITLE23=Rosalie (Faron Young)
TTITLE24=How Do You Think I Feel (Red Sovine)
TTITLE25=Love Is Hard To Understand (Jimmy Lee)
TTITLE26=Holiday For Love ( Webb Pierce)
TTITLE27=I았e Got A New Heartache (Ray Price)
TTITLE28=Sweet Love On My Mind ( Jimmy and Johnny)
TTITLE29=Rock The Bop (Brenda Lee)
TTITLE30=All I Can Do Is Cry  (Otto Bash)
TTITLE31=How Do You Think I Feel ( Elvis Presley )
TTITLE32=Are You Sincere? ( Andy Williams )
EXTD=
EXTT0=
EXTT1=
EXTT2=
EXTT3=
EXTT4=
EXTT5=
EXTT6=
EXTT7=
EXTT8=
EXTT9=
EXTT10=
EXTT11=
EXTT12=
EXTT13=
EXTT14=
EXTT15=
EXTT16=
EXTT17=
EXTT18=
EXTT19=
EXTT20=
EXTT21=
EXTT22=
EXTT23=
EXTT24=
EXTT25=
EXTT26=
EXTT27=
EXTT28=
EXTT29=
EXTT30=
EXTT31=
EXTT32=
PLAYORDER=
